<?xml version="1.0" encoding="UTF-8"?>
<svg id="Layer_1" data-name="Layer 1" xmlns="http://www.w3.org/2000/svg" viewBox="0 0 639.94 170.42">
  <defs>
    <style>
      .cls-1 {
        fill: #FF206E;
      }
    </style>
  </defs>
  <g>
    <path class="cls-1" d="M103.93,115.8c3.64-.42,6.83-1.86,9.55-4.24,7.03-6.17,10.25-13.92,8.06-23.09-1.92-8.04-7.55-12.92-15.59-14.8-5.33-1.25-10.4-.32-15.05,2.61-3.39,2.14-4.97,5.2-4.95,9.24,.06,14.15,.02,28.3,.03,42.45,0,7.88,.06,15.75,.03,23.63-.02,8.47-5.43,15.59-13.53,17.93-11.36,3.28-22.37-2.8-25.2-13.92-1.96-7.72,.97-15.89,7.46-20.7,5.92-4.38,14.92-5.09,21.38-.91,.38,.25,.8,.45,1.32,.74,.02-.53,.05-.91,.05-1.28,0-17.57,.03-35.14-.02-52.7,0-3.34,1.08-6.2,3.2-8.67,4.05-4.73,9.41-7.27,15.35-8.55,15.53-3.34,31.18,6.76,34.67,23.1,2.8,13.12-3.68,27.38-15.58,34.32-6.99,4.08-14.47,5.19-22.38,3.78-.37-.07-.96-.47-.97-.73-.06-3.58-.04-7.16-.04-10.46,2.27-.7,4.51-1.11,6.48-2.08,3.77-1.85,5.93-4.91,5.82-9.31-.07-2.83-1.24-5.02-3.72-6.39-2.37-1.31-4.51-.48-6.51,.94-4.34-3.22-4.05-9.08,.59-11.87,4.37-2.63,9.95-2.01,14.23,1.57,9.04,7.57,7.79,21.68-2.48,28.08-.72,.45-1.47,.87-2.21,1.3Zm-51.63,35.58c-.02,1.89,.81,3.11,2.23,3.28,1.77,.21,2.75-.76,2.93-2.92,.33-3.95,2.26-6.79,5.87-8.47,.7-.33,1.43-.61,2.1-1.01,1.45-.86,1.66-2.86,.25-3.76-.78-.5-2-.8-2.88-.59-5.72,1.36-10.43,7.5-10.5,13.46Z"/>
    <path class="cls-1" d="M142.22,0c.06,.75,.12,1.15,.12,1.56,0,7.74,.04,15.49-.02,23.23-.03,3.88-1.3,7.36-3.84,10.35-3.8,4.46-8.6,7.34-14.01,9.48-12.37,4.9-24.67,9.96-36.96,15.04-4.18,1.73-8.44,3.36-11.97,6.36-5.99,5.09-10.21,11.21-11.41,19.16-1.33,8.78,1.04,16.42,6.99,22.96,.62,.68,.93,1.32,.91,2.27-.07,3.11-.02,6.22-.02,9.59-.56-.3-1.01-.49-1.42-.76-6.54-4.24-11.25-10.03-13.79-17.35-4.73-13.62-2.27-26.03,7.04-37.05,3.37-3.99,7.5-7,12.19-9.29,.37-.18,.72-.82,.73-1.26,.06-2.94,.14-5.89,0-8.82-.25-5.74,2.32-9.79,7.43-12.07,4.56-2.04,9.3-3.69,13.97-5.49,9.86-3.8,19.76-7.52,29.59-11.4,5.39-2.13,9.72-5.62,12.35-10.91C140.91,3.94,141.43,2.11,142.22,0Z"/>
    <path class="cls-1" d="M26.08,66.86c-3.71,0-7.46,0-11.2,0-1.51-16.42,5.91-38.98,26.85-52.76C63.28-.09,89.44,1.18,109.46,16.25c-.57,.26-1.04,.51-1.54,.7-4.15,1.61-8.3,3.21-12.47,4.78-.34,.13-.85,.08-1.17-.08-6.63-3.46-13.72-5.01-21.14-4.74-13.34,.48-24.65,5.65-33.72,15.45-8.51,9.19-12.97,20.08-13.14,32.65,0,.52-.02,1.04-.05,1.55,0,.08-.07,.15-.15,.3Z"/>
    <path class="cls-1" d="M14.7,73.14h11.3v62.98c-1.63-.25-3.18-.36-4.65-.74-11.37-3-18.53-10.35-20.79-21.78-2.33-11.78,2.56-22.59,13.18-28.73,.76-.44,.99-.9,.97-1.72-.04-2.85-.02-5.71-.02-8.57,0-.46,0-.93,0-1.44Zm-7.31,35.69s0,.29,0,.55c.08,1.76,1.38,3.03,3.07,3,1.69-.03,2.78-1.2,2.81-3.05,0-.48,0-.95,0-1.43,.11-5.27,2.29-9.36,6.79-12.24,.72-.46,1.33-1.54,1.43-2.4,.12-1.12-.77-1.95-1.84-2.42-1.18-.51-2.19-.14-3.16,.55-5.91,4.21-8.86,9.99-9.11,17.44Z"/>
    <path class="cls-1" d="M31.85,135.93v-54.34c3.76-.21,7.13,.56,9.77,3.42,1.93,2.1,2.83,4.64,2.83,7.46,.02,11.16,.05,22.32-.03,33.47-.04,5.76-4.74,10.74-12.17,10.16-.12,0-.23-.1-.4-.18Z"/>
    <path class="cls-1" d="M124.13,64.3c-4.08-3.29-8.41-5.57-13.42-6.43-.02-.11-.04-.22-.06-.34,4.21-1.74,8.41-3.48,12.7-5.25,1.05,3.96,.96,7.85,.79,12.01Z"/>
  </g>
  <g>
    <path class="cls-1" d="M229.56,85.15c0,20.63-15.15,35.4-36.49,35.4h-28.61V49.87h28.61c21.4,0,36.49,14.63,36.49,35.29Zm-19.96,0c0-10.49-6.98-17.45-17.44-17.45h-8.13v35.02h8.13c10.47,0,17.44-7.14,17.44-17.57Z"/>
    <path class="cls-1" d="M281.26,109.07h-25.06l-3.92,11.48h-20.87l27.77-70.69h19.04l28.38,70.69h-21.44l-3.9-11.48Zm-12.57-37.14l-7.75,21.9h15.56l-7.81-21.9Z"/>
    <path class="cls-1" d="M408.59,49.87l-21.8,70.69h-17.14l-13.56-34.12-13.3,34.12h-17.14l-22.13-70.69h20.91l11.47,40.74,16.84-40.39h6.74l17.14,40.42,11.24-40.77h20.74Z"/>
    <path class="cls-1" d="M429.71,58.27v23.35h28.23v8.21h-28.23v30.73h-8.86V49.87h39.71v8.4h-30.86Z"/>
    <path class="cls-1" d="M516.83,112.06v8.49h-41.14V49.87h40.03v8.4h-31.17v21.85h28.54v8.21h-28.54v23.73h32.28Z"/>
    <path class="cls-1" d="M528.53,98.77h9.04c0,8.79,7.15,14,16.95,14,8.86,0,15.89-4.71,15.89-12.2,0-8.27-8.38-10.21-17.56-12.36-10.91-2.6-22.99-5.49-22.99-19.6,0-12.2,9.43-19.66,24.06-19.66s23.62,8.13,23.62,20.94h-8.77c0-7.86-6.41-12.45-15.04-12.45s-15.02,4.09-15.02,10.8c0,7.76,8.12,9.71,17.19,11.84,11.12,2.7,23.63,5.68,23.63,20.39,0,13.36-10.86,20.97-24.93,20.97-15.56,0-26.09-8.76-26.09-22.68Z"/>
    <path class="cls-1" d="M639.11,58.17h-21.51v62.38h-8.86V58.17h-21.51v-8.31h51.88v8.31Z"/>
  </g>
</svg>