<?xml version="1.0" encoding="UTF-8"?>
<svg id="Layer_1" data-name="Layer 1" xmlns="http://www.w3.org/2000/svg" viewBox="0 0 185.16 221.67">
  <defs>
    <style>
      .cls-1 {
        fill: #fff;
      }
    </style>
  </defs>
  <path class="cls-1" d="M135.18,150.63c4.74-.55,8.89-2.42,12.42-5.51,9.14-8.02,13.33-18.11,10.48-30.04-2.49-10.45-9.82-16.81-20.28-19.25-6.94-1.62-13.52-.42-19.57,3.4-4.4,2.78-6.46,6.76-6.44,12.02,.08,18.4,.03,36.81,.04,55.21,0,10.24,.07,20.49,.05,30.73-.03,11.02-7.06,20.28-17.6,23.33-14.77,4.27-29.1-3.64-32.78-18.11-2.55-10.04,1.26-20.67,9.7-26.92,7.7-5.7,19.41-6.61,27.81-1.18,.5,.32,1.04,.58,1.72,.96,.03-.7,.07-1.18,.07-1.67,0-22.85,.04-45.7-.03-68.55-.01-4.34,1.41-8.06,4.16-11.28,5.27-6.16,12.24-9.45,19.97-11.12,20.2-4.34,40.56,8.79,45.09,30.05,3.64,17.07-4.79,35.61-20.26,44.64-9.1,5.31-18.82,6.74-29.11,4.91-.48-.09-1.25-.62-1.26-.95-.08-4.66-.06-9.31-.06-13.6,2.95-.92,5.87-1.44,8.43-2.7,4.9-2.41,7.71-6.38,7.57-12.11-.1-3.69-1.62-6.53-4.84-8.31-3.08-1.71-5.86-.63-8.47,1.23-5.65-4.18-5.26-11.81,.76-15.44,5.68-3.42,12.94-2.62,18.51,2.05,11.76,9.85,10.14,28.2-3.23,36.53-.94,.59-1.91,1.13-2.87,1.69Zm-67.16,46.29c-.03,2.46,1.05,4.05,2.9,4.27,2.3,.28,3.57-.98,3.81-3.8,.44-5.14,2.94-8.83,7.64-11.01,.91-.42,1.86-.79,2.73-1.31,1.88-1.12,2.16-3.72,.33-4.9-1.01-.65-2.6-1.04-3.74-.77-7.44,1.77-13.56,9.76-13.66,17.51Z"/>
  <path class="cls-1" d="M184.99,0c.08,.97,.15,1.5,.15,2.02,0,10.07,.06,20.14-.02,30.22-.04,5.05-1.68,9.57-5,13.46-4.94,5.8-11.18,9.55-18.22,12.34-16.09,6.37-32.09,12.95-48.08,19.57-5.44,2.25-10.98,4.37-15.57,8.27-7.8,6.62-13.28,14.58-14.85,24.92-1.73,11.42,1.35,21.36,9.1,29.87,.81,.89,1.21,1.72,1.19,2.95-.09,4.05-.03,8.1-.03,12.47-.73-.39-1.32-.64-1.85-.99-8.51-5.51-14.63-13.05-17.93-22.57-6.15-17.72-2.95-33.85,9.15-48.19,4.38-5.19,9.76-9.11,15.85-12.09,.48-.24,.94-1.07,.95-1.64,.08-3.82,.18-7.66,0-11.48-.33-7.47,3.02-12.74,9.66-15.7,5.93-2.65,12.09-4.8,18.17-7.14,12.83-4.94,25.7-9.78,38.49-14.82,7.02-2.76,12.64-7.31,16.06-14.19,1.08-2.17,1.75-4.54,2.78-7.29Z"/>
  <path class="cls-1" d="M33.93,86.97c-4.82,0-9.7,0-14.57,0-1.97-21.36,7.69-50.71,34.92-68.63C82.31-.11,116.34,1.53,142.38,21.14c-.74,.34-1.35,.66-2,.91-5.4,2.09-10.8,4.18-16.22,6.22-.44,.16-1.1,.11-1.52-.11-8.62-4.49-17.84-6.52-27.5-6.17-17.35,.62-32.06,7.35-43.86,20.1-11.06,11.95-16.87,26.11-17.1,42.47,0,.67-.03,1.35-.06,2.02,0,.1-.1,.19-.2,.39Z"/>
  <path class="cls-1" d="M19.13,95.13h14.7v81.92c-2.12-.33-4.13-.46-6.04-.97-14.79-3.9-24.11-13.46-27.04-28.32-3.03-15.32,3.34-29.38,17.14-37.37,.99-.57,1.28-1.17,1.27-2.24-.05-3.71-.02-7.43-.02-11.14,0-.6,0-1.21,0-1.88Zm-9.5,46.42s-.01,.38,0,.71c.1,2.29,1.79,3.94,4,3.91,2.2-.04,3.61-1.57,3.66-3.97,.01-.62,0-1.24,0-1.86,.15-6.86,2.98-12.18,8.84-15.93,.93-.6,1.73-2,1.85-3.12,.16-1.46-1-2.54-2.39-3.15-1.53-.67-2.85-.18-4.11,.72-7.69,5.48-11.53,13-11.85,22.68Z"/>
  <path class="cls-1" d="M41.43,176.8V106.13c4.89-.27,9.27,.72,12.7,4.45,2.51,2.73,3.68,6.03,3.69,9.71,.02,14.51,.06,29.03-.04,43.54-.05,7.5-6.16,13.97-15.82,13.21-.16-.01-.3-.13-.52-.24Z"/>
  <path class="cls-1" d="M161.45,83.64c-5.31-4.28-10.94-7.25-17.45-8.36-.03-.15-.06-.29-.08-.44,5.47-2.26,10.94-4.52,16.51-6.83,1.37,5.15,1.24,10.21,1.02,15.63Z"/>
</svg>